<?xml version="1.0" standalone="no"?><!DOCTYPE svg PUBLIC "-//W3C//DTD SVG 1.1//EN" "http://www.w3.org/Graphics/SVG/1.1/DTD/svg11.dtd"><svg t="1504680926581" class="icon" style="" viewBox="0 0 1032 1024" version="1.1" xmlns="http://www.w3.org/2000/svg" p-id="4270" xmlns:xlink="http://www.w3.org/1999/xlink" width="201.5625" height="200"><defs><style type="text/css"></style></defs><path d="M0 515.872C0 741.12 144.352 932.64 345.584 1002.976c27.12 6.896 22.896-12.544 22.896-25.616l0-89.424c-156.464 18.304-162.736-85.28-173.296-102.608-21.312-36.272-71.392-45.488-56.432-62.752 35.696-18.432 71.968 4.608 114 66.784 30.464 45.072 89.664 37.504 119.936 29.936 6.624-27.056 20.704-51.2 39.952-70.08-161.888-28.816-229.552-127.792-229.552-245.44 0-56.944 18.8-109.504 55.808-151.856-23.408-69.888 2.256-129.472 5.616-138.416 66.928-6.08 136.512 47.872 141.872 52.128 38.128-10.192 81.52-15.76 130.064-15.76 48.848 0 92.48 5.632 130.784 15.952 13.072-9.952 77.584-56.192 139.824-50.544 3.312 8.848 28.416 67.168 6.4 136.016 37.376 42.464 56.352 95.264 56.352 152.48 0 117.888-67.952 217.008-230.528 245.6 27.152 26.736 43.984 63.92 43.984 105.04l0 129.712c0.864 10.336 0 20.736 17.36 20.736 204.112-68.752 351.12-261.712 351.12-489.008C1031.744 230.96 800.784 0 515.872 0 230.96 0 0 230.96 0 515.872L0 515.872zM0 515.872" p-id="4271" fill="#ffffff"></path></svg>