<?xml version="1.0" encoding="UTF-8"?>
<svg width="400px" height="400px" viewBox="0 0 400 400" version="1.1" xmlns="http://www.w3.org/2000/svg" xmlns:xlink="http://www.w3.org/1999/xlink">
    <title>编组 76</title>
    <defs>
        <linearGradient x1="92.5807219%" y1="100%" x2="7.41927813%" y2="0%" id="linearGradient-1">
            <stop stop-color="#2750FF" offset="0%"></stop>
            <stop stop-color="#1178FF" offset="100%"></stop>
        </linearGradient>
        <linearGradient x1="92.6743018%" y1="100%" x2="7.32569821%" y2="0%" id="linearGradient-2">
            <stop stop-color="#2750FF" offset="0%"></stop>
            <stop stop-color="#1178FF" offset="100%"></stop>
        </linearGradient>
    </defs>
    <g id="页面-1" stroke="none" stroke-width="1" fill="none" fill-rule="evenodd">
        <g id="编组-76" transform="translate(1.877726, -9.680776)">
            <path d="M233.188565,367.680776 C240.392696,367.623639 254.580931,366.209926 275.753271,363.437939 C291.991893,361.31652 304.135558,357.92225 312.184267,353.255128 C325.175165,345.759448 335.412557,335.576638 342.896444,322.706697 C350.380331,309.836756 354.122274,295.340394 354.122274,279.217611 C354.122274,259.417702 348.862373,242.976706 338.34257,229.894624 C327.822766,216.812541 311.407637,207.584369 289.097182,202.210108 C303.782545,197.118703 314.937772,190.188735 322.562865,181.420203 C334.000503,168.267407 339.719322,152.498193 339.719322,134.112564 C339.719322,112.191236 331.705915,93.8056058 315.679101,78.955674 C299.652287,64.1057423 276.671106,56.6807764 246.735558,56.6807764 L117.122274,56.6807764 C89.5080368,56.6807764 67.1222743,79.0665389 67.1222743,106.680776 L67.1222743,317.680776 C67.1222743,345.295014 89.5080368,367.680776 117.122274,367.680776 L233.188565,367.680776 L233.188565,367.680776 Z" id="B" fill="url(#linearGradient-1)" fill-rule="nonzero"></path>
            <path d="M225.405591,358.769015 C232.609835,358.71194 246.798294,357.299755 267.970967,354.530765 C284.209845,352.41164 296.353702,349.02104 304.402538,344.358965 C317.39364,336.871391 327.631194,326.699591 335.115199,313.843566 C342.599204,300.987542 346.341206,286.506854 346.341206,270.401505 C346.341206,250.623005 341.081222,234.199787 330.561253,221.13185 C320.041284,208.063913 303.625896,198.845719 281.315089,193.477269 C296.000683,188.391369 307.156087,181.468895 314.781299,172.709845 C326.219118,159.57127 331.938027,143.819108 331.938027,125.453359 C331.938027,103.555734 323.924494,85.1899847 307.897427,70.3561101 C291.87036,55.5222355 268.888817,48.1052982 238.952797,48.1052982 L109.336681,48.1052982 C81.7224438,48.1052982 59.3366813,70.4910607 59.3366813,98.1052982 L59.3366813,308.769015 C59.3366813,336.383252 81.7224438,358.769015 109.336681,358.769015 L225.405591,358.769015 L225.405591,358.769015 Z" id="B" fill="url(#linearGradient-2)" fill-rule="nonzero" opacity="0.303756359" transform="translate(202.838944, 203.437157) rotate(-26.000000) translate(-202.838944, -203.437157) "></path>
            <path d="M256.937353,112.530123 C271.587218,112.532232 283.465226,126.047502 283.467627,142.717324 C283.469507,155.775939 276.183168,166.896614 265.983594,171.100944 C255.624425,172.096676 249.812624,172.594451 248.548192,172.594269 C235.188204,172.592345 224.118609,183.599005 222.134162,197.981151 L222.144462,267.9902 C218.030578,291.509352 199.739649,309.687851 178.217968,312.311848 L178.218016,312.638741 L131.796954,312.632058 C117.147089,312.629948 105.269081,299.114678 105.26668,282.444857 C105.264749,269.027912 112.956502,257.656723 123.596832,253.730862 L128.032592,252.564959 C129.259461,252.367274 130.51335,252.26511 131.788261,252.265294 C133.063745,252.265478 134.318218,252.368094 135.545672,252.566308 L144.70265,252.568562 L144.702783,252.285181 C157.425344,250.315141 167.28846,238.288049 167.730361,223.575269 L167.744845,223.574812 L167.745823,222.539203 L168.25418,202.061937 L168.250008,178.087204 C167.705632,174.791992 168.249709,171.015155 168.249209,167.543055 C168.245143,139.309176 186.84269,112.520031 210.516981,112.523439 L256.937353,112.530123 Z" id="路径" fill="#FFFFFF" transform="translate(194.367153, 212.581090) rotate(-29.000000) translate(-194.367153, -212.581090) "></path>
            <path d="M256.937353,112.530123 C271.587218,112.532232 283.465226,126.047502 283.467627,142.717324 C283.469507,155.775939 276.183168,166.896614 265.983594,171.100944 C255.624425,172.096676 249.812624,172.594451 248.548192,172.594269 C235.188204,172.592345 224.118609,183.599005 222.134162,197.981151 L222.144462,267.9902 C218.030578,291.509352 199.739649,309.687851 178.217968,312.311848 L178.218016,312.638741 L131.796954,312.632058 C117.147089,312.629948 105.269081,299.114678 105.26668,282.444857 C105.264749,269.027912 112.956502,257.656723 123.596832,253.730862 L128.032592,252.564959 C129.259461,252.367274 130.51335,252.26511 131.788261,252.265294 C133.063745,252.265478 134.318218,252.368094 135.545672,252.566308 L144.70265,252.568562 L144.702783,252.285181 C157.425344,250.315141 167.28846,238.288049 167.730361,223.575269 L167.744845,223.574812 L167.745823,222.539203 L168.25418,202.061937 L168.250008,178.087204 C167.705632,174.791992 168.249709,171.015155 168.249209,167.543055 C168.245143,139.309176 186.84269,112.520031 210.516981,112.523439 L256.937353,112.530123 Z" id="路径" fill="#FFFFFF" transform="translate(194.367153, 212.581090) rotate(-29.000000) translate(-194.367153, -212.581090) "></path>
        </g>
    </g>
</svg>