<?xml version="1.0" standalone="no"?><!DOCTYPE svg PUBLIC "-//W3C//DTD SVG 1.1//EN" "http://www.w3.org/Graphics/SVG/1.1/DTD/svg11.dtd"><svg t="1592462446757" class="icon" viewBox="0 0 1024 1024" version="1.1" xmlns="http://www.w3.org/2000/svg" p-id="2675" width="400" height="400" xmlns:xlink="http://www.w3.org/1999/xlink"><defs><style type="text/css"></style></defs><path d="M807.2 508.5c-9.7-71.8-40.6-105.2-108.4-122.6-38.8-10-78.2-13.1-118.1-12.7-10.5 0.1-16.1-0.5-13.2-14.5 3-14.2 1.9-29.4 1.6-44.1-0.6-36.4-17-55.9-55.4-66.8-35.5-10.1-61.6-1.5-80.8 28-21.1 32.5-32.6 69-41.3 106.4-9.5 25.8-15.9 52.3-18.6 79.7-8.2 5.7-9 14.5-10.3 23.4-6 40.3-5.7 80.8-4.3 121.3 1 30.5 8.8 59.8 22.8 87 7.3 14.3 14.7 29.4 33 33.2 17.2 8.1 33.2 18.6 52.2 23.1 45.4 10.8 91.2 15.6 137.8 12.6 31.9 2 62.9-4.5 93.9-10.7 61.3-12.4 95.4-50.2 106.4-111.6 7.9-44 8.6-87.9 2.7-131.7z" fill="#FFC152" p-id="2676" data-spm-anchor-id="a313x.7781069.0.i3"></path><path d="M369.2 635.4c-9.7-58.2-3.8-115.8 4-173.5-54-18.3-89.8-4.7-114.8 45.2-19.5 38.9-32.3 80.1-38.5 123.2-7.4 25.8-9.3 52.3-3.6 78.1 8.4 38.3 47.9 63.8 99.9 67.8 4.1 1.3 8 3.5 12.2 3.8 41.3 2.9 66.4-20.7 85.9-53.3-24.5-25.8-39.3-56-45.1-91.3z" fill="#FF6994" p-id="2677"></path></svg>